<svg id="Laag_1" data-name="Laag 1" xmlns="http://www.w3.org/2000/svg" viewBox="0 0 26 16"><title>hamburger</title><rect x="0.5" y="0.5" width="25" height="3" style="fill:#fff;stroke:#000;stroke-miterlimit:10"/><rect x="0.5" y="6.5" width="25" height="3" style="fill:#fff;stroke:#000;stroke-miterlimit:10"/><rect x="0.5" y="12.5" width="25" height="3" style="fill:#fff;stroke:#000;stroke-miterlimit:10"/><path d="M3.57,5.32q11.36,0,22.73.2c1.93,0,1.93-3,0-3Q14.93,2.3,3.57,2.32a1.5,1.5,0,0,0,0,3Z" transform="translate(-2 -2)"/><path d="M3.75,11.54q11.21,0,22.39-.22c1.92-.05,1.93-3.05,0-3Q15,8.59,3.75,8.54a1.5,1.5,0,0,0,0,3Z" transform="translate(-2 -2)"/><path d="M3.82,17.59l22.36-.1a1.5,1.5,0,0,0,0-3l-22.36.1a1.5,1.5,0,0,0,0,3Z" transform="translate(-2 -2)"/></svg>