<svg id="Laag_1" data-name="Laag 1" xmlns="http://www.w3.org/2000/svg" viewBox="0 0 288 362.53"><defs><style>.cls-1{fill:#fff;stroke:#000;stroke-miterlimit:10;}.cls-2{fill:lime;}</style></defs><title>icon</title><rect class="cls-1" x="0.5" y="75.03" width="287" height="287"/><path class="cls-2" d="M138.94,237.56l32.9,52.38,32.9,52.38L223.35,372A13.59,13.59,0,0,0,248,368.73q14.8-47.55,31.41-94.52t35.05-93.39q10.32-26,21.19-51.74l-1.36,3.22q13.26-31.41,27.34-62.49c1.54-3.4,2.39-6.66,1.36-10.4a13.8,13.8,0,0,0-6.21-8.07c-3.13-1.65-6.92-2.48-10.4-1.36-3.14,1-6.64,3.07-8.07,6.21q-13.05,28.8-25.4,57.93-13,30.56-25.24,61.41-11.62,29.35-22.55,59T244,294.2Q233.79,324,224.33,354.08L222,361.56l24.68-3.23L213.77,306l-32.9-52.38-18.61-29.64a14.15,14.15,0,0,0-8.07-6.2,13.79,13.79,0,0,0-10.4,1.36,13.62,13.62,0,0,0-6.21,8.07,13.78,13.78,0,0,0,1.36,10.4Z" transform="translate(-106 -49.47)"/></svg>