<svg id="Laag_1" data-name="Laag 1" xmlns="http://www.w3.org/2000/svg" viewBox="0 0 288 518.86"><title>logo-do-it</title><rect x="0.5" y="75.03" width="287" height="287" style="fill:#fff;stroke:#000;stroke-miterlimit:10"/><path d="M138.94,206.56l32.9,52.38,32.9,52.38L223.35,341A13.59,13.59,0,0,0,248,337.73q14.8-47.55,31.41-94.52t35.05-93.39q10.32-26,21.19-51.74l-1.36,3.22q13.26-31.41,27.34-62.49c1.54-3.4,2.39-6.66,1.36-10.4a13.8,13.8,0,0,0-6.21-8.07c-3.13-1.65-6.92-2.48-10.4-1.36-3.14,1-6.64,3.07-8.07,6.21Q325.29,54,312.94,83.12q-13,30.55-25.24,61.41-11.62,29.35-22.55,59T244,263.2Q233.79,293,224.33,323.08L222,330.56l24.68-3.23L213.77,275l-32.9-52.38-18.61-29.64a14.15,14.15,0,0,0-8.07-6.2,13.79,13.79,0,0,0-10.4,1.36,13.62,13.62,0,0,0-6.21,8.07,13.78,13.78,0,0,0,1.36,10.4Z" transform="translate(-106 -18.47)" style="fill:lime"/><path d="M117.4,439.24a173.39,173.39,0,0,1,26.27-2c17.75,0,30.38,4.21,38.76,12.19s13.49,19.29,13.49,35.11-4.83,29-13.77,38c-9,9.15-23.71,14.08-42.31,14.08a196.48,196.48,0,0,1-22.44-1.16Zm12.36,86.48a76.37,76.37,0,0,0,12.49.72c26.41,0,40.75-15.09,40.75-41.5.14-23.07-12.64-37.72-38.76-37.72a68.3,68.3,0,0,0-14.48,1.31Z" transform="translate(-106 -18.47)" style="fill:lime"/><path d="M274.3,500c0,26-17.61,37.29-34.22,37.29-18.6,0-32.94-13.93-32.94-36.13,0-23.5,15.05-37.28,34.07-37.28C261,463.91,274.3,478.56,274.3,500Zm-54.52.73c0,15.38,8.66,27,20.87,27,11.92,0,20.87-11.46,20.87-27.28,0-11.9-5.82-27-20.59-27S219.78,487.41,219.78,500.76Z" transform="translate(-106 -18.47)" style="fill:lime"/><path d="M332.94,437.93v97.8H320.59v-97.8Z" transform="translate(-106 -18.47)" style="fill:lime"/><path d="M371.42,445.33V465.5h17.89v9.72H371.42v37.87c0,8.71,2.41,13.64,9.37,13.64a27.05,27.05,0,0,0,7.24-.87l.57,9.58a30.16,30.16,0,0,1-11.08,1.74c-5.82,0-10.5-1.89-13.48-5.37-3.55-3.77-4.83-10-4.83-18.28V475.22H348.56V465.5h10.65V448.67Z" transform="translate(-106 -18.47)" style="fill:lime"/></svg>